# xmcd
#
# Track frame offsets:
#	150
#	16454
#	33862
#	62201
#
# Disc length: 1825 seconds
#
# Revision: 1
# Processed by: cddbd v1.5.2PL0 Copyright (c) Steve Scherf et al.
# Submitted via: audiograbber 1.83.01
#
DISCID=2b071f04
DTITLE=Culcha Candela - EY DJ
DYEAR=2007
DGENRE=Dance Hall
TTITLE0=EY DJ (Single Version)
TTITLE1=EY DJ (mi Bario Remix)
TTITLE2=EY DJ (Album Version)
TTITLE3=Video
EXTD=
EXTT0=
EXTT1=
EXTT2=
EXTT3=
PLAYORDER=
